<svg width="278" height="60" viewBox="0 0 278 60" fill="none" xmlns="http://www.w3.org/2000/svg">
<path d="M67.0361 3.24052L67.1196 3.22236V2.58172H50.0627L34.2249 39.4562L18.387 2.58172H0.00610421V3.22236L0.0886043 3.24052C3.20199 3.93664 4.78262 4.97478 4.78262 8.71873V52.5494C4.78262 56.2934 3.19588 57.3315 0.0824876 58.0276L0 58.0458V58.6885H12.4709V58.0478L12.3884 58.0297C9.27497 57.3335 7.69435 56.2954 7.69435 52.5515V11.2611L28.0398 58.6885H29.1937L50.132 9.93846V53.634C49.8651 56.591 48.2988 57.504 45.4797 58.1346L45.3962 58.1538V58.7893H67.1196V58.1538L67.0361 58.1346C64.214 57.504 62.61 56.591 62.3431 53.634L62.3289 8.71873H62.3431C62.3431 4.97478 63.9238 3.93664 67.0361 3.24052ZM76.9588 32.276C77.3143 24.4007 80.169 18.7167 84.9597 18.6188C86.4375 18.6431 87.6769 19.1233 88.6404 20.0474C90.6875 22.0157 91.6499 26.1289 91.5012 32.276H76.9588ZM76.7439 34.4956H102.205V34.3896C102.133 28.3676 100.372 23.6834 96.9764 20.4671C94.0412 17.6877 89.6955 16.1582 85.1308 16.1582H85.029C82.6601 16.1582 79.7545 16.7272 77.687 17.7583C75.3334 18.8378 73.2578 20.452 71.5305 22.5706C68.7502 25.9837 67.0657 30.5962 66.6562 35.7799C66.643 35.9352 66.6318 36.0906 66.6206 36.246C66.6094 36.4013 66.6023 36.5406 66.5951 36.6889C66.5809 36.9663 66.5697 37.2448 66.5636 37.5242C66.5534 37.9722 66.5503 38.4231 66.5585 38.8771C66.8345 50.6174 73.2364 60 84.6074 60C94.5881 60 100.4 52.7724 101.85 43.071L101.117 42.8158C98.5713 48.0297 93.9984 51.1895 88.7942 50.8041C81.6895 50.2774 76.247 43.1417 76.7409 34.4976L76.7439 34.4956ZM130.992 50.4056C130.157 52.3678 128.415 53.4473 126.079 53.4473C123.744 53.4473 121.61 51.8594 120.093 48.974C118.464 45.8767 117.606 41.4982 117.606 36.3115C117.606 25.5165 120.995 18.5341 126.241 18.5341C128.438 18.5341 130.168 19.6136 130.992 21.4972V50.4056ZM147.882 58.1013C144.769 57.3719 143.188 56.2853 143.188 52.3507V0L124.273 5.52058V6.19653L124.389 6.18745C126.998 5.97861 128.768 6.33576 129.796 7.27603C130.6 8.01251 130.992 9.14246 130.992 10.7324V17.9096C129.128 16.7302 126.91 16.1562 124.218 16.1562C118.759 16.1562 113.77 18.4332 110.171 22.5686C106.42 26.8785 104.438 32.7684 104.438 39.5995C104.437 51.7998 110.499 60 119.523 60C124.801 60 129.048 57.1348 130.992 52.3023V58.7893H147.965V58.1174L147.882 58.1013ZM164.105 7.11965C164.105 3.31013 161.206 0.436844 157.359 0.436844C153.531 0.436844 150.535 3.37268 150.535 7.11965C150.535 10.8666 153.534 13.8025 157.359 13.8025C161.206 13.8025 164.105 10.9292 164.105 7.11965ZM168.57 58.1013C165.457 57.3719 163.876 56.2853 163.876 52.3507H163.863V16.2803L146.889 21.1077V21.7635L146.991 21.7726C150.664 22.0965 151.669 23.3495 151.669 27.6009V58.7893H168.657V58.1174L168.57 58.1013ZM212.063 58.1013C208.949 57.3719 207.369 56.2853 207.369 52.3507V16.2803L191.208 20.9483V21.6061L191.304 21.6162C194.306 21.929 195.174 23.2536 195.174 27.5242V50.3249C194.173 52.2871 192.295 53.4524 190.02 53.5311C186.33 53.5311 184.298 51.0624 184.298 46.5799V16.2813L167.325 21.1088V21.7635L167.426 21.7726C171.099 22.0954 172.105 23.3485 172.105 27.6009V46.8977C172.096 48.2448 172.215 49.5898 172.458 50.9151L172.764 52.2316C174.201 57.3325 177.966 60 183.865 60C188.862 60 193.241 56.936 195.17 52.1418V58.8004H212.143V58.1285L212.063 58.1013ZM278 58.7893V58.1164L277.918 58.0973C274.539 57.3255 273.224 55.8707 273.224 52.9086V28.3727C273.224 20.7224 268.886 16.1562 261.62 16.1562C256.324 16.1562 251.859 19.1879 250.139 23.9104C248.774 18.9064 244.844 16.1562 239.032 16.1562C233.928 16.1562 229.927 18.8247 228.211 23.3323V16.2833L211.238 20.913V21.5728L211.34 21.5819C214.968 21.9007 216.017 23.1901 216.017 27.3325V58.7893H231.854V58.1174L231.771 58.0973C229.076 57.4697 228.206 56.3257 228.206 53.3898V25.2663C228.919 23.6168 230.356 21.6626 233.197 21.6626C236.724 21.6626 238.513 24.0839 238.513 28.8539V58.7893H254.354V58.1174L254.27 58.0973C251.575 57.4697 250.706 56.3257 250.706 53.3898V28.3697C250.713 27.4341 250.638 26.4998 250.482 25.5771C251.237 23.7843 252.757 21.6626 255.713 21.6626C259.291 21.6626 261.03 24.0143 261.03 28.8539V58.7893H278Z" fill="black"/>
</svg>
